<svg xmlns="http://www.w3.org/2000/svg" viewBox="0 0 220 140" fill="none" aria-hidden="true">
  <path d="M30 90 Q50 40 75 55 Q95 30 110 50" stroke="#4A4540" stroke-width="1.4" stroke-linecap="round"/>
  <path d="M110 50 Q130 35 150 60 Q175 45 190 85" stroke="#4A4540" stroke-width="1.4" stroke-linecap="round"/>
  <path d="M55 70 Q65 95 50 110 M130 65 Q140 90 125 105" stroke="#4A4540" stroke-width="1.2" stroke-linecap="round"/>
  <circle cx="108" cy="48" r="12" stroke="#4A4540" stroke-width="1.3"/>
  <circle cx="108" cy="48" r="5" fill="#E8B4A0" opacity="0.9"/>
  <path d="M108 36 L108 28 M108 60 L108 68 M96 48 L88 48 M120 48 L128 48" stroke="#4A4540" stroke-width="1" stroke-linecap="round"/>
  <path d="M100 40 L94 34 M116 40 L122 34 M100 56 L94 62 M116 56 L122 62" stroke="#4A4540" stroke-width="1" stroke-linecap="round"/>
</svg>
